Coordinates
version=1
nRows=9
nColumns=24
inDegrees=yes

Units are S.I. units (second, meters, Newtons, ...)
Angles are in degrees.

endheader
time	pelvis_tilt	pelvis_list	pelvis_rotation	pelvis_tx	pelvis_ty	pelvis_tz	hip_flexion_r	hip_adduction_r	hip_rotation_r	knee_angle_r	ankle_angle_r	subtalar_angle_r	mtp_angle_r	hip_flexion_l	hip_adduction_l	hip_rotation_l	knee_angle_l	ankle_angle_l	subtalar_angle_l	mtp_angle_l	lumbar_extension	lumbar_bending	lumbar_rotation
      0.51900000	     -5.17833647	      5.07590692	      2.25851526	     -0.82905059	      0.97608459	      0.29011226	     29.85939661	     -3.96645365	     -6.11962026	     -4.13723955	      3.41005329	     -2.73770352	      8.49157673	    -11.45072318	      8.49122854	      3.01007759	     -4.39242556	      8.44379146	     -4.38404325	      0.50837154	      0.71485658	     -3.43731443	      0.64527396
      0.52316667	     -5.19935950	      5.05086770	      2.30172572	     -0.82316149	      0.97558325	      0.29047040	     29.87438978	     -3.91505803	     -6.18946672	     -4.36270585	      3.27095837	     -2.92635295	      8.48883354	    -11.54345143	      8.42953995	      3.04107220	     -4.86087731	      8.46645666	     -4.37540783	      0.52118629	      0.79503678	     -3.39025207	      0.53700018
      0.52733333	     -5.27591220	      5.01725462	      2.32130785	     -0.81724030	      0.97503604	      0.29087304	     29.95263318	     -3.84175542	     -6.16547685	     -4.64920485	      3.05274312	     -3.18711827	      8.49039719	    -11.54382333	      8.36581529	      3.00227557	     -5.38880815	      8.43759687	     -4.33245083	      0.55099613	      0.93280349	     -3.33533046	      0.48696374
      0.53150000	     -5.26190018	      4.98251900	      2.31586381	     -0.81128294	      0.97464190	      0.29128640	     29.95331203	     -3.76532417	     -6.17106882	     -5.02994626	      2.87739619	     -3.33568501	      8.48926613	    -11.64481958	      8.30329327	      2.96282376	     -5.90336584	      8.33735106	     -4.38619686	      0.56199184	      0.95704758	     -3.28347397	      0.48239551
      0.53566667	     -5.36866615	      4.95019040	      2.34054427	     -0.80532123	      0.97413762	      0.29168458	     30.06384029	     -3.69735360	     -6.08132833	     -5.41913548	      2.49401458	     -3.79040456	      8.49653967	    -11.56726847	      8.24256263	      2.94146901	     -6.51366639	      8.30501489	     -4.30493241	      0.62864444	      1.15611542	     -3.21514114	      0.46181502
      0.53983333	     -5.42111197	      4.89627449	      2.32920619	     -0.79931841	      0.97374645	      0.29216842	     30.09397144	     -3.58053237	     -5.87279017	     -5.81209137	      2.19695910	     -4.40226133	      8.52494483	    -11.51505602	      8.15845517	      2.80578495	     -7.18304810	      8.23143876	     -4.24183571	      0.77827231	      1.28563497	     -3.13703859	      0.45159149
      0.54400000	     -5.45154861	      4.84195926	      2.30797223	     -0.79324942	      0.97341696	      0.29260643	     30.14270028	     -3.47850130	     -5.80199403	     -6.32708679	      1.79654814	     -4.73892154	      8.53855601	    -11.51554571	      8.08211210	      2.78032879	     -7.78632758	      8.06981300	     -4.26306769	      0.87831513	      1.38810972	     -3.03877579	      0.47050080
      0.54816667	     -5.50462926	      4.77672443	      2.26641997	     -0.78718660	      0.97309735	      0.29312841	     30.18672852	     -3.33687419	     -5.54622312	     -6.81842071	      1.46917669	     -5.41983640	      8.58891901	    -11.43502954	      7.99345833	      2.65030334	     -8.49839659	      7.94190483	     -4.25264462	      1.16695282	      1.52166900	     -2.93632837	      0.48882998
      0.55233333	     -5.54176152	      4.71397292	      2.23950043	     -0.78105804	      0.97285231	      0.29358279	     30.23493962	     -3.22610922	     -5.47271430	     -7.37699647	      0.98079996	     -5.69410652	      8.60099149	    -11.37564102	      7.90940675	      2.59911303	     -9.19564247	      7.68616783	     -4.30255757	      1.28725776	      1.64030739	     -2.83040275	      0.51602209
